<?xml version="1.0" encoding="utf-8"?>
<!-- Generator: Adobe Illustrator 23.0.2, SVG Export Plug-In . SVG Version: 6.00 Build 0)  -->
<svg version="1.1" id="Layer_1" xmlns="http://www.w3.org/2000/svg" xmlns:xlink="http://www.w3.org/1999/xlink" x="0px" y="0px"
	 viewBox="0 0 1600.1 456.3" style="enable-background:new 0 0 1600.1 456.3;" xml:space="preserve">
<style type="text/css">
	.st0{fill:#F4F5F6;}
</style>
<g>
	<g>
		<path class="st0" d="M272.7,310.5h33.6v31.2h-117v-31.2h43.4V201.8l-37.2,23.4l-17.4-28.3l58.3-35.4h36.4V310.5z"/>
	</g>
	<g>
		<path class="st0" d="M603.9,160.2c14.4,21.5,21.6,51.9,21.6,91c0,39.4-7.2,69.9-21.6,91.5c-14.4,21.6-35.5,32.4-63.3,32.4
			c-27.9,0-49-10.8-63.3-32.4c-14.4-21.6-21.6-52.1-21.6-91.5c0-39.2,7.2-69.5,21.6-91c14.4-21.5,35.5-32.3,63.3-32.3
			C568.4,127.9,589.5,138.7,603.9,160.2z M514.2,186.5c-5.6,13-8.3,34.6-8.3,64.7c0,19.7,0.7,35.6,2,47.6l57.4-120.2
			c-2.7-4.3-6-7.3-9.8-9c-3.9-1.7-8.8-2.5-14.9-2.5C528.5,167,519.8,173.5,514.2,186.5z M566.7,317.1c5.4-12.9,8.2-34.9,8.2-65.9
			c0-12.5-0.3-23.4-1-33l-54,111.8c4.5,4.3,11.4,6.5,20.7,6.5C552.6,336.5,561.3,330,566.7,317.1z"/>
	</g>
	<g>
		<path class="st0" d="M711.4,299.1h27.1v25.2H644v-25.2h35v-87.7l-30,18.9L635,207.4l47-28.5h29.4V299.1z"/>
	</g>
	<g>
		<path class="st0" d="M1113.4,350h56.1v52.2H973.8V350h72.6V168.3l-62.2,39.1l-29.1-47.4l97.4-59.1h60.9V350z"/>
	</g>
	<g>
		<path class="st0" d="M1280,304.6h30.2v28.1h-105.4v-28.1h39.1v-97.9l-33.5,21.1l-15.7-25.5l52.5-31.9h32.8V304.6z"/>
	</g>
	<g>
		<path class="st0" d="M914.1,149.2c16.1,24.1,24.2,58.1,24.2,102c0,44.1-8.1,78.3-24.2,102.6c-16.1,24.2-39.8,36.3-71,36.3
			c-31.2,0-54.9-12.1-71-36.3c-16.1-24.2-24.2-58.4-24.2-102.6c0-43.9,8.1-77.9,24.2-102c16.1-24.1,39.8-36.2,71-36.2
			C874.3,113,898,125.1,914.1,149.2z M813.6,178.7c-6.2,14.6-9.3,38.8-9.3,72.5c0,22.1,0.8,39.8,2.3,53.3l64.3-134.7
			c-3-4.8-6.7-8.2-11-10.1c-4.3-1.9-9.9-2.9-16.7-2.9C829.6,156.8,819.8,164.1,813.6,178.7z M872.4,325c6.1-14.5,9.1-39.1,9.1-73.8
			c0-14-0.4-26.3-1.1-36.9l-60.5,125.2c5.1,4.8,12.8,7.2,23.2,7.2C856.5,346.7,866.3,339.5,872.4,325z"/>
	</g>
	<g>
		<path class="st0" d="M429,194.1c9,13.5,13.6,32.6,13.6,57.3c0,24.8-4.5,44-13.6,57.6c-9.1,13.6-22.3,20.4-39.9,20.4
			c-17.5,0-30.8-6.8-39.9-20.4c-9.1-13.6-13.6-32.8-13.6-57.6c0-24.7,4.5-43.8,13.6-57.3c9-13.5,22.3-20.3,39.9-20.3
			C406.7,173.7,420,180.5,429,194.1z M372.6,210.6c-3.5,8.2-5.2,21.8-5.2,40.7c0,12.4,0.4,22.4,1.3,29.9l36.1-75.7
			c-1.7-2.7-3.8-4.6-6.2-5.7c-2.4-1.1-5.6-1.6-9.4-1.6C381.6,198.3,376.1,202.4,372.6,210.6z M405.6,292.8
			c3.4-8.1,5.1-21.9,5.1-41.5c0-7.8-0.2-14.8-0.6-20.7l-34,70.3c2.9,2.7,7.2,4.1,13,4.1C396.7,305,402.2,301,405.6,292.8z"/>
	</g>
	<g>
		<path class="st0" d="M1459.3,171.1c12.7,19,19,45.7,19,80.2c0,34.7-6.3,61.6-19,80.6c-12.7,19.1-31.3,28.6-55.8,28.6
			c-24.5,0-43.1-9.5-55.8-28.6c-12.7-19-19-45.9-19-80.6c0-34.5,6.3-61.2,19-80.2c12.7-18.9,31.3-28.4,55.8-28.4
			C1428,142.7,1446.6,152.1,1459.3,171.1z M1380.3,194.3c-4.9,11.5-7.3,30.5-7.3,57c0,17.4,0.6,31.3,1.8,41.9l50.6-105.9
			c-2.4-3.8-5.3-6.4-8.7-7.9c-3.4-1.5-7.8-2.2-13.2-2.2C1392.9,177.1,1385.2,182.8,1380.3,194.3z M1426.5,309.3
			c4.8-11.4,7.2-30.7,7.2-58c0-11-0.3-20.6-0.9-29l-47.6,98.4c4,3.8,10.1,5.7,18.3,5.7C1414.1,326.4,1421.7,320.7,1426.5,309.3z"/>
	</g>
</g>
</svg>
