<?xml version="1.0" encoding="utf-8"?>
<!-- Generator: Adobe Illustrator 23.0.2, SVG Export Plug-In . SVG Version: 6.00 Build 0)  -->
<svg version="1.1" id="Layer_1" xmlns="http://www.w3.org/2000/svg" xmlns:xlink="http://www.w3.org/1999/xlink" x="0px" y="0px"
	 viewBox="0 0 1200 400" style="enable-background:new 0 0 1200 400;" xml:space="preserve">
<style type="text/css">
	.st0{fill:#494A49;}
	.st1{fill:#2980B9;}
	.st2{opacity:0.2;}
	.st3{fill:#D0D2D2;}
	.st4{fill:#888888;}
	.st5{fill:#303E51;}
	.st6{fill:#25323D;}
	.st7{fill:#4B647C;}
	.st8{fill:#E9ECED;}
	.st9{fill:#BAC0C4;}
	.st10{fill:#404049;}
	.st11{fill:#333B40;}
	.st12{fill:#262D30;}
	.st13{opacity:0.5;fill:#75B5CE;}
	.st14{fill:none;}
	.st15{fill:#41596D;}
	.st16{fill:#3F4A4F;}
	.st17{fill:#C53C46;}
	.st18{fill:#F0C433;}
	.st19{fill:#4994D6;}
	.st20{fill:#A5CF68;}
	.st21{fill:#E9EBEE;}
	.st22{fill:#E1E1E1;}
	.st23{fill:#F1F1F6;}
	.st24{fill:#B7B8BB;}
	.st25{fill:#3F4244;}
	.st26{fill:#333435;}
	.st27{fill:#D4D4D4;}
	.st28{fill:#B9BBBD;}
	.st29{fill:#DB4935;}
	.st30{fill:#B63726;}
	.st31{fill:#F36D6D;}
	.st32{fill:#F4DFC0;}
	.st33{fill:#E8E8E8;}
</style>
<path class="st0" d="M77,120.1c7.5,0,12.8,1.2,15.9,3.5c3.2,2.4,4.7,5.8,4.7,10.3c0,3.2-0.9,5.8-2.7,7.8s-4.2,3.2-7.1,3.7
	c1.7,0.2,3.2,0.6,4.6,1.2c1.4,0.6,2.7,1.5,3.8,2.5c1.1,1.1,1.9,2.4,2.6,4c0.6,1.6,1,3.4,1,5.5c0,2.7-0.6,5.1-1.7,7s-2.7,3.5-4.7,4.6
	c-2,1.2-4.4,2-7.3,2.5c-2.8,0.5-5.9,0.8-9.3,0.8H61V120L77,120.1L77,120.1z M68.8,125.8v16.8h9.6c4.2,0,7.2-0.7,8.9-2.2
	c1.7-1.5,2.6-3.6,2.6-6.5c0-3.1-1-5.2-3-6.4s-5-1.8-9.1-1.8L68.8,125.8L68.8,125.8z M68.8,148.5v18.8h9.5c1.8,0,3.5-0.1,5.1-0.2
	s3-0.5,4.3-1.1c1.2-0.6,2.2-1.5,2.9-2.6c0.7-1.1,1.1-2.7,1.1-4.7c0-3.2-0.9-5.7-2.8-7.5s-5.2-2.6-10.1-2.6L68.8,148.5L68.8,148.5z"
	/>
<path class="st1" d="M146.1,173.6V167h12.7v-53l-13.1,8l-3.5-5.4l16-9.8h8.1V167h10.4v6.6H146.1z"/>
<path class="st0" d="M255.1,126.9h-15.9v46.7h-7.8v-46.7h-15.7v-6.8h39.4V126.9z"/>
<path class="st0" d="M322.7,150.4h-20.1v23.1h-7.8V120h30.7v6.4h-22.8v17.8h20.1v6.2H322.7z"/>
<path class="st0" d="M396.1,149.5h-21.8v17.7h24.5v6.4h-32.4v-53.5h32.4v6.4h-24.5v16.8h21.8V149.5z"/>
<path class="st0" d="M440.2,163.1c1.4,3.4,3.6,5.2,6.7,5.2c2.4,0,4.2-0.7,5.2-2.1c1-1.4,1.6-3.6,1.6-6.5v-39.5h7.8v39.4
	c0,5.2-1.4,9-4.1,11.6s-6.3,3.8-10.6,3.8c-3.1,0-5.7-0.8-8-2.4c-2.3-1.6-4-3.7-5.1-6.2L440.2,163.1z"/>
<path class="st0" d="M536.5,149.5h-21.8v17.7h24.5v6.4h-32.4v-53.5h32.4v6.4h-24.5v16.8h21.8V149.5z"/>
<path class="st0" d="M612.1,173.6L590,149v24.5h-7.7V120h7.7v23.1l19.8-23.1h9.4L597,145.6l25,28H612.1z"/>
<g>
	<g class="st2">
		<path d="M1058.5,315.6l-5.9-0.8c-7.6-1-15.5-1-23.1,0.1c-4.5,0.6-8.9,1.5-13.2,2.7V173.7h30.1c1.2,0,2.1-0.9,2.1-2.1V86.1
			c0-1.2-0.9-2.1-2.1-2.1h-9.3v-1.4c0-0.3-0.3-0.6-0.6-0.6h-0.4v-9.7c0-6.4,5.2-11.7,11.7-11.7h14.9c6.4,0,11.7,5.2,11.7,11.7v28.7
			c0,0.2,0,0.3,0,0.5c0,0,0,0,0,0v38.6h-0.3c-0.3,0-0.6,0.3-0.6,0.6v2.6h-4.7c-0.2,0-0.4,0.2-0.4,0.4v16.6c0,0.2,0.2,0.4,0.4,0.4
			h0.6v12.6h12.5v-12.6h0.6c0.2,0,0.4-0.2,0.4-0.4v-16.6c0-0.2-0.2-0.4-0.4-0.4h-4.7v-2.6c0-0.3-0.3-0.6-0.6-0.6h-0.6v-38.9
			c0,0,0,0,0,0c0-0.1,0-0.2,0-0.2V72.4c0-7.9-6.4-14.3-14.3-14.3h-14.9c-7.9,0-14.3,6.4-14.3,14.3v9.7h-0.4c-0.3,0-0.6,0.3-0.6,0.6
			V84h-42.3c-1.2,0-2.1,0.9-2.1,2.1v29.3H744.8v-7.5v-9.3v-1.8c0-0.3-0.2-0.5-0.5-0.5h-1.8c-0.3,0-0.5,0.2-0.5,0.5v1.2h-4.5v-1
			c0-0.3-0.2-0.5-0.5-0.5h-2.5c-0.1-0.1-0.3-0.2-0.4-0.2h-35.3c-0.2,0-0.3,0.1-0.4,0.2h-1.6c-0.3,0-0.5,0.2-0.5,0.5v0.9h-16.6v0.1
			h-0.1v-0.5c0-0.3-0.2-0.5-0.5-0.5h-3.4c-0.3,0-0.5,0.2-0.5,0.5v0.5h-4.7v-0.5c0-0.3-0.2-0.5-0.5-0.5h-1.6c-0.3,0-0.5,0.2-0.5,0.5
			v1.1v34.5v33.4c0,0.3,0.2,0.5,0.5,0.5h3.7v15.5c0,0.3,0.2,0.5,0.5,0.5h7v0h16.7v0h43.8v70.2h-22.5l-0.8-5.2c0-0.1,0-0.2-0.1-0.3
			c-0.2-0.7-0.9-1.2-1.7-1.2h-18.4c-0.9,0-1.6,0.6-1.8,1.5l-0.8,4.1c-6.2,3.7-10.4,10.3-10.6,18l-0.1,0l0,0h0l-5.6,37.8
			c-1.3,7.5,3.4,15.4,10.8,17.4l0.1,0c1.3,0.3,2.6,0.5,3.9,0.5c5.6,0,10.8-3.3,13.3-8.5l8.5-14.6c2.6,3,6.3,4.9,10.5,4.9h0h0
			c6.5,0,11.9-3.9,13.5-10.4h1.8v24.9c0,7.8,6.3,14.1,14.1,14.1h180.5l0.3,4.2c1,10.3,9.6,18.2,19.9,18.5l9.9,0.3
			c7.3,0.2,14-3.5,17.9-9.7l7.6-13.4h10.9l7.7,13.4c3.8,6.1,10.3,9.7,17.4,9.7h0c0.2,0,0.3,0,0.5,0l9.9-0.3
			c10.3-0.3,18.9-8.2,19.9-18.5l0.6-9.4c0.1-1.6,1.1-3.1,2.6-3.8c1.3-0.6,2.2-1.9,2.1-3.3l-0.2-5.1
			C1061.5,317.2,1060.2,315.8,1058.5,315.6z M752.5,136.5c-3,0.6-5.7,2.1-7.8,4.1v-4.1H752.5z"/>
		<path d="M1163.7,163.8c0-5-3-9.1-6.7-9.5c-0.1,0-0.3,0-0.5,0c-0.3,0-0.6,0-0.9,0.1c-0.2,0-0.3,0.1-0.5,0.1c-0.1,0-0.1,0-0.2,0.1
			c-2.3,0.6-4.4,2.6-6,5.9c-1.4,2.9-2,6.1-2.1,9.1h0v0.4v5.1v21.5h1v5.5h0.4v87.7c0,0,0,0,0,0v7.9c0,6.6-5.3,11.9-11.9,11.9h-14.4
			c1.9-2.4,3-5.4,3-8.7v-3.6v-1.8v-12.1h0.4v-2.9h0.4c0.9,0,1.6-0.7,1.6-1.6v-40.2c0-0.9-0.7-1.6-1.6-1.6h-0.4v-5.7h-0.4v-50h0.4
			V176h1v-22.8c0.2,0,0.3,0,0.5,0c3.6,0,8-1.9,9.5-6c0,0,0-0.1,0-0.2c0.2-0.8,0.3-1.9,0.3-3.1c0,0,0-0.1,0-0.1c0,0,0-0.1,0-0.1
			c0-1.3-0.1-2.4-0.4-3.1c0-0.2-0.1-0.4-0.1-0.5c-1.7-4-5.9-5.7-9.4-5.7c-4.7,0-8.6,3.5-9.3,8c-0.1,0.2-0.1,0.7-0.1,1.3
			c0,3.1,1.6,5.9,3.9,7.6V176h1v5.5h0.4v50h-0.5v5.7h-0.4c-0.9,0-1.6,0.7-1.6,1.6V279c0,0.9,0.7,1.6,1.6,1.6h0.4v2.9h0.5v12.1v1.8
			v3.6c0,3.4-1.5,6.5-3.8,8.7h-15c-6.6,0-11.9-5.3-11.9-11.9v-1.9v-6.2c0,0,0,0,0,0v-67.5v-1.3V211c0-7.8-6.3-14.1-14.1-14.1h-13
			c-7.8,0-14.1,6.3-14.1,14.1v7h-0.4v3.2h-1.2v18.4h1.2v11.2h3v-11.2h1.1v-18.4h-1.1v-3.2h-0.4v-7c0-6.6,5.3-11.9,11.9-11.9h13
			c6.6,0,11.9,5.3,11.9,11.9v9.9v1.3V294h0v1.7v1.9v3.2c0,7.8,6.3,14.1,14.1,14.1h6.9c3.4,0,6.5-1.2,9-3.2h16.5
			c7.8,0,14.1-6.3,14.1-14.1v-1.2h0v-94.4h0.4v-5.5h1v-23.4c0-1.1,0.5-1.5,0.7-1.6c1.2,1,2.5,1.6,4,1.6c0.2,0,0.4,0,0.5,0
			C1160.7,173,1163.7,168.8,1163.7,163.8z M1110.8,312.8h-6.9c-3.9,0-7.4-1.9-9.6-4.9c2.5,2.4,5.9,3.8,9.6,3.8h11.8
			C1114.3,312.4,1112.6,312.8,1110.8,312.8z"/>
		<polygon points="1023.2,258.6 1021.2,258.6 1021.2,291.4 1023.2,291.4 1068.9,291.4 1070.9,291.4 1070.9,258.6 1068.9,258.6 		"/>
		<path d="M787.1,97.5c0,0.4,0,0.8,0.1,1.2c0,0,0,0,0,0c0,0.2,0.1,0.3,0.1,0.5c0,0,0,0,0,0.1c0,0.1,0.1,0.3,0.2,0.4
			c0,0,0,0.1,0.1,0.1c0,0.1,0.1,0.2,0.1,0.3c0,0.1,0.1,0.1,0.1,0.1c0,0,0.1,0.1,0.1,0.1c0.1,0.1,0.1,0.1,0.2,0.1c0,0,0.1,0,0.1,0.1
			c0.1,0,0.2,0.1,0.3,0.1c0,0,0,0,0,0v0h30.8h99.3h0l10.2-1.8v0l7.5-1.3l-7.5-1.3v0l-10.2-1.7h0h-99.3h-30.6c-0.1,0-0.1,0-0.2,0
			C787.7,94.4,787,95.8,787.1,97.5C787,97.4,787,97.5,787.1,97.5C787,97.5,787.1,97.5,787.1,97.5z"/>
		<path d="M713.9,207.3h-35.1c-1.1,0-2.1,0.9-2.1,2.1v9.8c0,1.1,0.9,2.1,2.1,2.1h35.1c1.1,0,2-0.8,2-1.9h10.1v-9.6H716v-0.3
			C716,208.2,715,207.3,713.9,207.3z"/>
	</g>
	<g>
		<g>
			<rect x="1066.4" y="156.3" class="st3" width="12.5" height="14.2"/>
			<g>
				<path class="st4" d="M1074.4,163.2c0-0.2,0.2-0.4,0.4-0.4h1.9c0.2,0,0.4,0.2,0.4,0.4v1.6c0,0.2-0.2,0.4-0.4,0.4h-1.9
					c-0.2,0-0.4-0.2-0.4-0.4V163.2z"/>
				<path class="st4" d="M1068.2,163.2c0-0.2,0.2-0.4,0.4-0.4h1.9c0.2,0,0.4,0.2,0.4,0.4v1.6c0,0.2-0.2,0.4-0.4,0.4h-1.9
					c-0.2,0-0.4-0.2-0.4-0.4V163.2z"/>
				<path class="st4" d="M1071.6,160.1c0-0.2,0.2-0.4,0.4-0.4h1.4c0.2,0,0.4,0.2,0.4,0.4v0.1c0,0.2-0.2,0.4-0.4,0.4h-1.4
					c-0.2,0-0.4-0.2-0.4-0.4V160.1z"/>
			</g>
			<path class="st5" d="M1070.4,137.7c0-0.3,0.3-0.6,0.6-0.6h3.4c0.3,0,0.6,0.3,0.6,0.6v3.4c0,0.3-0.3,0.6-0.6,0.6h-3.4
				c-0.3,0-0.6-0.3-0.6-0.6V137.7z"/>
			<path class="st5" d="M1029.5,79.6c0-0.3,0.3-0.6,0.6-0.6h3.4c0.3,0,0.6,0.3,0.6,0.6V83c0,0.3-0.3,0.6-0.6,0.6h-3.4
				c-0.3,0-0.6-0.3-0.6-0.6V79.6z"/>
			<path class="st5" d="M1065.4,140.8c0-0.2,0.2-0.4,0.4-0.4h13.8c0.2,0,0.4,0.2,0.4,0.4v16.6c0,0.2-0.2,0.4-0.4,0.4h-13.8
				c-0.2,0-0.4-0.2-0.4-0.4V140.8z"/>
			<path class="st5" d="M1059.6,55.2h-14.9c-7.9,0-14.3,6.4-14.3,14.3v26.7c0.2,0,0.4,0,0.6,0c0.6,0,1.3-0.1,2,0V69.4
				c0-6.4,5.2-11.7,11.7-11.7h14.9c6.4,0,11.7,5.2,11.7,11.7v28.7c0,0.2,0,0.3,0,0.5c0,0,0,0,0,0V138h2.5V98.3c0,0,0,0,0,0
				c0-0.1,0-0.2,0-0.2V69.4C1073.9,61.6,1067.5,55.2,1059.6,55.2z"/>
			<path class="st6" d="M1045.5,168.6c0,1.2-0.9,2.1-2.1,2.1h-56.2c-1.2,0-2.1-0.9-2.1-2.1V83.1c0-1.2,0.9-2.1,2.1-2.1h56.2
				c1.2,0,2.1,0.9,2.1,2.1V168.6z"/>
		</g>
		<g>
			<path class="st7" d="M741.2,93.3h-1.8c-0.3,0-0.5,0.2-0.5,0.5v1.2h-4.5v-1c0-0.3-0.2-0.5-0.5-0.5h-40.3c-0.3,0-0.5,0.2-0.5,0.5v1
				h-16.7v-0.5c0-0.3-0.2-0.5-0.5-0.5h-3.4c-0.3,0-0.5,0.2-0.5,0.5v0.5h-4.7v-0.5c0-0.3-0.2-0.5-0.5-0.5h-1.6
				c-0.3,0-0.5,0.2-0.5,0.5v1.1v34.5v33.4c0,0.3,0.2,0.5,0.5,0.5h3.7v15.5c0,0.3,0.2,0.5,0.5,0.5H737c0.3,0,0.5-0.2,0.5-0.5v-15.5
				h3.6c0.3,0,0.5-0.2,0.5-0.5v-58.6v-9.3v-1.8C741.8,93.6,741.5,93.3,741.2,93.3z"/>
			<path class="st5" d="M731.4,93.9c0-0.3-0.2-0.5-0.5-0.5h-35.3c-0.3,0-0.5,0.2-0.5,0.5v58.2c0,0.3,0.2,0.5,0.5,0.5h35.3
				c0.3,0,0.5-0.2,0.5-0.5V93.9z"/>
			<polygon class="st5" points="703.1,163.9 699.6,157.5 706.6,157.5 			"/>
			<rect x="676.4" y="95.1" class="st5" width="16.7" height="85.1"/>
			<rect x="675.7" y="174.9" class="st7" width="18.1" height="3.3"/>
			<rect x="675.7" y="168" class="st7" width="18.1" height="3.3"/>
			<rect x="675.7" y="161.1" class="st7" width="18.1" height="3.3"/>
			<rect x="675.7" y="154.3" class="st7" width="18.1" height="3.3"/>
			<rect x="675.7" y="147.4" class="st7" width="18.1" height="3.3"/>
			<rect x="675.7" y="140.5" class="st7" width="18.1" height="3.3"/>
			<rect x="675.7" y="133.6" class="st7" width="18.1" height="3.3"/>
			<rect x="675.7" y="126.8" class="st7" width="18.1" height="3.3"/>
			<rect x="675.7" y="119.9" class="st7" width="18.1" height="3.3"/>
			<rect x="675.7" y="113" class="st7" width="18.1" height="3.3"/>
			<rect x="675.7" y="106.2" class="st7" width="18.1" height="3.3"/>
			<rect x="675.7" y="99.3" class="st7" width="18.1" height="3.3"/>
		</g>
		<g>
			<path class="st8" d="M752.8,133.2c-8.8,0-16,7.2-16,16v170c0,7.8,6.3,14.1,14.1,14.1h248.2c7.8,0,14.1-6.3,14.1-14.1v-170
				c0-8.8-7.2-16-16-16H752.8z"/>
			<path class="st9" d="M992.6,251.8c0,4.1-3.3,7.5-7.5,7.5H765c-4.1,0-7.5-3.3-7.5-7.5v-93c0-4.1,3.3-7.5,7.5-7.5h220.1
				c4.1,0,7.5,3.3,7.5,7.5V251.8z"/>
			<g>
				<path class="st5" d="M899.3,252.3c0,0.4-0.3,0.7-0.7,0.7h-65.3c-0.4,0-0.7-0.3-0.7-0.7v-15.7c0-0.4,0.3-0.7,0.7-0.7h65.3
					c0.4,0,0.7,0.3,0.7,0.7V252.3z"/>
				<path class="st5" d="M807.8,252.3c0,0.4,0.3,0.7,0.7,0.7h19.8c0.4,0,0.7-0.3,0.7-0.7v-15.7c0-0.4-0.3-0.7-0.7-0.7h-19.8
					c-0.4,0-0.7,0.3-0.7,0.7V252.3z"/>
				<path class="st5" d="M902.8,252.3c0,0.4,0.3,0.7,0.7,0.7h19.8c0.4,0,0.7-0.3,0.7-0.7v-15.7c0-0.4-0.3-0.7-0.7-0.7h-19.8
					c-0.4,0-0.7,0.3-0.7,0.7V252.3z"/>
				<path class="st5" d="M985.6,229.6c0,0.4-0.3,0.7-0.7,0.7h-45.7c-0.4,0-0.7-0.3-0.7-0.7v-15.7c0-0.4,0.3-0.7,0.7-0.7h45.7
					c0.4,0,0.7,0.3,0.7,0.7V229.6z"/>
				<path class="st5" d="M766.6,229.6c0,0.4,0.3,0.7,0.7,0.7h37.8c0.4,0,0.7-0.3,0.7-0.7v-15.7c0-0.4-0.3-0.7-0.7-0.7h-37.8
					c-0.4,0-0.7,0.3-0.7,0.7V229.6z"/>
				<path class="st5" d="M827,229.3c0,0.4-0.3,0.7-0.7,0.7h-15.7c-0.4,0-0.7-0.3-0.7-0.7v-15.7c0-0.4,0.3-0.7,0.7-0.7h15.7
					c0.4,0,0.7,0.3,0.7,0.7V229.3z"/>
				<path class="st5" d="M848.5,229.6c0,0.4-0.3,0.7-0.7,0.7H832c-0.4,0-0.7-0.3-0.7-0.7v-15.7c0-0.4,0.3-0.7,0.7-0.7h15.7
					c0.4,0,0.7,0.3,0.7,0.7V229.6z"/>
				<path class="st5" d="M869.9,229.6c0,0.4-0.3,0.7-0.7,0.7h-15.7c-0.4,0-0.7-0.3-0.7-0.7v-15.7c0-0.4,0.3-0.7,0.7-0.7h15.7
					c0.4,0,0.7,0.3,0.7,0.7V229.6z"/>
				<path class="st5" d="M891.4,229.6c0,0.4-0.3,0.7-0.7,0.7h-15.7c-0.4,0-0.7-0.3-0.7-0.7v-15.7c0-0.4,0.3-0.7,0.7-0.7h15.7
					c0.4,0,0.7,0.3,0.7,0.7V229.6z"/>
				<path class="st5" d="M912.8,229.6c0,0.4-0.3,0.7-0.7,0.7h-15.7c-0.4,0-0.7-0.3-0.7-0.7v-15.7c0-0.4,0.3-0.7,0.7-0.7h15.7
					c0.4,0,0.7,0.3,0.7,0.7V229.6z"/>
				<path class="st5" d="M934.2,229.6c0,0.4-0.3,0.7-0.7,0.7h-15.7c-0.4,0-0.7-0.3-0.7-0.7v-15.7c0-0.4,0.3-0.7,0.7-0.7h15.7
					c0.4,0,0.7,0.3,0.7,0.7V229.6z"/>
				<path class="st5" d="M985.6,209.4c0,0.4-0.3,0.7-0.7,0.7h-30c-0.4,0-0.7-0.3-0.7-0.7v-15.7c0-0.4,0.3-0.7,0.7-0.7h30
					c0.4,0,0.7,0.3,0.7,0.7V209.4z"/>
				<path class="st5" d="M766.6,209.4c0,0.4,0.3,0.7,0.7,0.7h27c0.4,0,0.7-0.3,0.7-0.7v-15.7c0-0.4-0.3-0.7-0.7-0.7h-27
					c-0.4,0-0.7,0.3-0.7,0.7V209.4z"/>
				<path class="st5" d="M816.4,209.4c0,0.4-0.3,0.7-0.7,0.7H800c-0.4,0-0.7-0.3-0.7-0.7v-15.7c0-0.4,0.3-0.7,0.7-0.7h15.7
					c0.4,0,0.7,0.3,0.7,0.7V209.4z"/>
				<path class="st5" d="M838.6,209.4c0,0.4-0.3,0.7-0.7,0.7h-15.7c-0.4,0-0.7-0.3-0.7-0.7v-15.7c0-0.4,0.3-0.7,0.7-0.7h15.7
					c0.4,0,0.7,0.3,0.7,0.7V209.4z"/>
				<path class="st5" d="M860.8,209.4c0,0.4-0.3,0.7-0.7,0.7h-15.7c-0.4,0-0.7-0.3-0.7-0.7v-15.7c0-0.4,0.3-0.7,0.7-0.7h15.7
					c0.4,0,0.7,0.3,0.7,0.7V209.4z"/>
				<path class="st5" d="M883,209.4c0,0.4-0.3,0.7-0.7,0.7h-15.7c-0.4,0-0.7-0.3-0.7-0.7v-15.7c0-0.4,0.3-0.7,0.7-0.7h15.7
					c0.4,0,0.7,0.3,0.7,0.7V209.4z"/>
				<path class="st5" d="M905.2,209.4c0,0.4-0.3,0.7-0.7,0.7h-15.7c-0.4,0-0.7-0.3-0.7-0.7v-15.7c0-0.4,0.3-0.7,0.7-0.7h15.7
					c0.4,0,0.7,0.3,0.7,0.7V209.4z"/>
				<path class="st5" d="M927.3,209.4c0,0.4-0.3,0.7-0.7,0.7h-15.7c-0.4,0-0.7-0.3-0.7-0.7v-15.7c0-0.4,0.3-0.7,0.7-0.7h15.7
					c0.4,0,0.7,0.3,0.7,0.7V209.4z"/>
				<path class="st5" d="M949.5,209.4c0,0.4-0.3,0.7-0.7,0.7h-15.7c-0.4,0-0.7-0.3-0.7-0.7v-15.7c0-0.4,0.3-0.7,0.7-0.7h15.7
					c0.4,0,0.7,0.3,0.7,0.7V209.4z"/>
				<path class="st5" d="M966,252.3c0,0.4-0.3,0.7-0.7,0.7h-15.7c-0.4,0-0.7-0.3-0.7-0.7v-7.1c0-0.4,0.3-0.7,0.7-0.7h15.7
					c0.4,0,0.7,0.3,0.7,0.7V252.3z"/>
				<path class="st5" d="M966,241.3c0,0.4-0.3,0.7-0.7,0.7h-15.7c-0.4,0-0.7-0.3-0.7-0.7v-7.1c0-0.4,0.3-0.7,0.7-0.7h15.7
					c0.4,0,0.7,0.3,0.7,0.7V241.3z"/>
				<path class="st5" d="M945.8,252.3c0,0.4-0.3,0.7-0.7,0.7h-15.7c-0.4,0-0.7-0.3-0.7-0.7v-7.1c0-0.4,0.3-0.7,0.7-0.7h15.7
					c0.4,0,0.7,0.3,0.7,0.7V252.3z"/>
				<path class="st5" d="M986.2,252.3c0,0.4-0.3,0.7-0.7,0.7h-15.7c-0.4,0-0.7-0.3-0.7-0.7v-7.1c0-0.4,0.3-0.7,0.7-0.7h15.7
					c0.4,0,0.7,0.3,0.7,0.7V252.3z"/>
				<g>
					<path class="st5" d="M783.5,167.6c0,0.4-0.3,0.7-0.7,0.7h-15.7c-0.4,0-0.7-0.3-0.7-0.7v-7.1c0-0.4,0.3-0.7,0.7-0.7h15.7
						c0.4,0,0.7,0.3,0.7,0.7V167.6z"/>
					<path class="st5" d="M803.7,167.6c0,0.4-0.3,0.7-0.7,0.7h-15.7c-0.4,0-0.7-0.3-0.7-0.7v-7.1c0-0.4,0.3-0.7,0.7-0.7h15.7
						c0.4,0,0.7,0.3,0.7,0.7V167.6z"/>
					<path class="st5" d="M823.8,167.6c0,0.4-0.3,0.7-0.7,0.7h-15.7c-0.4,0-0.7-0.3-0.7-0.7v-7.1c0-0.4,0.3-0.7,0.7-0.7h15.7
						c0.4,0,0.7,0.3,0.7,0.7V167.6z"/>
					<path class="st5" d="M843.9,167.6c0,0.4-0.3,0.7-0.7,0.7h-15.7c-0.4,0-0.7-0.3-0.7-0.7v-7.1c0-0.4,0.3-0.7,0.7-0.7h15.7
						c0.4,0,0.7,0.3,0.7,0.7V167.6z"/>
					<path class="st5" d="M864,167.6c0,0.4-0.3,0.7-0.7,0.7h-15.7c-0.4,0-0.7-0.3-0.7-0.7v-7.1c0-0.4,0.3-0.7,0.7-0.7h15.7
						c0.4,0,0.7,0.3,0.7,0.7V167.6z"/>
					<path class="st5" d="M884.1,167.6c0,0.4-0.3,0.7-0.7,0.7h-15.7c-0.4,0-0.7-0.3-0.7-0.7v-7.1c0-0.4,0.3-0.7,0.7-0.7h15.7
						c0.4,0,0.7,0.3,0.7,0.7V167.6z"/>
					<path class="st5" d="M904.3,167.6c0,0.4-0.3,0.7-0.7,0.7h-15.7c-0.4,0-0.7-0.3-0.7-0.7v-7.1c0-0.4,0.3-0.7,0.7-0.7h15.7
						c0.4,0,0.7,0.3,0.7,0.7V167.6z"/>
					<path class="st5" d="M924.4,167.6c0,0.4-0.3,0.7-0.7,0.7h-15.7c-0.4,0-0.7-0.3-0.7-0.7v-7.1c0-0.4,0.3-0.7,0.7-0.7h15.7
						c0.4,0,0.7,0.3,0.7,0.7V167.6z"/>
					<path class="st5" d="M944.5,167.6c0,0.4-0.3,0.7-0.7,0.7H928c-0.4,0-0.7-0.3-0.7-0.7v-7.1c0-0.4,0.3-0.7,0.7-0.7h15.7
						c0.4,0,0.7,0.3,0.7,0.7V167.6z"/>
					<path class="st5" d="M964.6,167.6c0,0.4-0.3,0.7-0.7,0.7h-15.7c-0.4,0-0.7-0.3-0.7-0.7v-7.1c0-0.4,0.3-0.7,0.7-0.7h15.7
						c0.4,0,0.7,0.3,0.7,0.7V167.6z"/>
					<path class="st5" d="M984.8,167.6c0,0.4-0.3,0.7-0.7,0.7h-15.7c-0.4,0-0.7-0.3-0.7-0.7v-7.1c0-0.4,0.3-0.7,0.7-0.7H984
						c0.4,0,0.7,0.3,0.7,0.7V167.6z"/>
				</g>
				<g>
					<path class="st5" d="M766.6,188.4c0,0.4,0.3,0.7,0.7,0.7h19.8c0.4,0,0.7-0.3,0.7-0.7v-15.7c0-0.4-0.3-0.7-0.7-0.7h-19.8
						c-0.4,0-0.7,0.3-0.7,0.7V188.4z"/>
					<path class="st5" d="M809.5,188.4c0,0.4-0.3,0.7-0.7,0.7H793c-0.4,0-0.7-0.3-0.7-0.7v-15.7c0-0.4,0.3-0.7,0.7-0.7h15.7
						c0.4,0,0.7,0.3,0.7,0.7V188.4z"/>
					<path class="st5" d="M831.4,188.4c0,0.4-0.3,0.7-0.7,0.7h-15.7c-0.4,0-0.7-0.3-0.7-0.7v-15.7c0-0.4,0.3-0.7,0.7-0.7h15.7
						c0.4,0,0.7,0.3,0.7,0.7V188.4z"/>
					<path class="st5" d="M853.3,188.4c0,0.4-0.3,0.7-0.7,0.7h-15.7c-0.4,0-0.7-0.3-0.7-0.7v-15.7c0-0.4,0.3-0.7,0.7-0.7h15.7
						c0.4,0,0.7,0.3,0.7,0.7V188.4z"/>
					<path class="st5" d="M875.2,188.4c0,0.4-0.3,0.7-0.7,0.7h-15.7c-0.4,0-0.7-0.3-0.7-0.7v-15.7c0-0.4,0.3-0.7,0.7-0.7h15.7
						c0.4,0,0.7,0.3,0.7,0.7V188.4z"/>
					<path class="st5" d="M897.1,188.4c0,0.4-0.3,0.7-0.7,0.7h-15.7c-0.4,0-0.7-0.3-0.7-0.7v-15.7c0-0.4,0.3-0.7,0.7-0.7h15.7
						c0.4,0,0.7,0.3,0.7,0.7V188.4z"/>
					<path class="st5" d="M919,188.4c0,0.4-0.3,0.7-0.7,0.7h-15.7c-0.4,0-0.7-0.3-0.7-0.7v-15.7c0-0.4,0.3-0.7,0.7-0.7h15.7
						c0.4,0,0.7,0.3,0.7,0.7V188.4z"/>
					<path class="st5" d="M940.9,188.4c0,0.4-0.3,0.7-0.7,0.7h-15.7c-0.4,0-0.7-0.3-0.7-0.7v-15.7c0-0.4,0.3-0.7,0.7-0.7h15.7
						c0.4,0,0.7,0.3,0.7,0.7V188.4z"/>
					<path class="st5" d="M962.8,188.4c0,0.4-0.3,0.7-0.7,0.7h-15.7c-0.4,0-0.7-0.3-0.7-0.7v-15.7c0-0.4,0.3-0.7,0.7-0.7h15.7
						c0.4,0,0.7,0.3,0.7,0.7V188.4z"/>
					<path class="st5" d="M984.8,188.4c0,0.4-0.3,0.7-0.7,0.7h-15.7c-0.4,0-0.7-0.3-0.7-0.7v-15.7c0-0.4,0.3-0.7,0.7-0.7H984
						c0.4,0,0.7,0.3,0.7,0.7V188.4z"/>
				</g>
				<path class="st5" d="M804.4,252.3c0,0.4-0.3,0.7-0.7,0.7h-15.7c-0.4,0-0.7-0.3-0.7-0.7v-15.7c0-0.4,0.3-0.7,0.7-0.7h15.7
					c0.4,0,0.7,0.3,0.7,0.7V252.3z"/>
				<path class="st5" d="M784.3,252.3c0,0.4-0.3,0.7-0.7,0.7h-15.7c-0.4,0-0.7-0.3-0.7-0.7v-15.7c0-0.4,0.3-0.7,0.7-0.7h15.7
					c0.4,0,0.7,0.3,0.7,0.7V252.3z"/>
			</g>
			<path class="st9" d="M917.2,317.4c0,3.9-3.1,7-7,7h-72c-3.9,0-7-3.1-7-7v-44.6c0-3.9,3.1-7,7-7h72c3.9,0,7,3.1,7,7V317.4z"/>
			<path class="st10" d="M782.4,132.9v0.2c0,4.1,3.3,7.5,7.5,7.5h171.4c4.1,0,7.5-3.3,7.5-7.5v-0.2H782.4z"/>
			<path class="st9" d="M1037.5,129.2c0.7,0.7,0.9,1.8,0.5,2.8c-0.4,0.9-1.3,1.5-2.3,1.5H705.7c-1,0-1.9-0.6-2.3-1.5
				c-0.4-0.9-0.2-2,0.5-2.8l11.8-12.4c2.7-2.8,6.4-4.4,10.2-4.4h289.5c3.9,0,7.6,1.6,10.2,4.4L1037.5,129.2z"/>
		</g>
		<g>
			<g>
				<path class="st11" d="M1023.6,329.3l14.8-10.6l12.2-1.7V328h-7.2l-4.4-3l-11.1,9.8c-0.1,0.1-0.3,0.2-0.4,0.3
					c-1.6,1.1-3.8,0.6-4.8-1C1021.6,332.5,1022,330.4,1023.6,329.3z"/>
			</g>
			<g>
				<path class="st12" d="M961.5,329.3l-14.8-10.6l-12.2-1.7V328h7.2l4.4-3l11.1,9.8c0.1,0.1,0.2,0.2,0.4,0.3c1.6,1.1,3.8,0.6,4.8-1
					C963.5,332.5,963.1,330.4,961.5,329.3z"/>
			</g>
			<path class="st13" d="M983,331.9c0,12.8-10.3,23.1-23.1,23.1h-7.8c-9.6,0-17.4-7.8-17.4-17.4v-12.5c0-6,4.9-10.9,10.9-10.9h19.8
				C975.1,314.2,983,322.1,983,331.9z"/>
			<path class="st13" d="M1002.4,331.9c0,12.8,10.3,23.1,23.1,23.1h7.8c9.6,0,17.4-7.8,17.4-17.4v-12.5c0-6-4.9-10.9-10.9-10.9
				h-19.8C1010.3,314.2,1002.4,322.1,1002.4,331.9z"/>
			<path class="st10" d="M1058.6,316c-0.1-1.7-1.3-3.1-3.1-3.4l-5.9-0.8c-7.6-1-15.5-1-23.1,0.1c-5.3,0.7-10.6,1.9-15.8,3.3l-11,3.2
				l-3.2,0.4c-2.7,0.4-5.4,0.4-8.1,0l-3.2-0.4l-11-3.2c-5.1-1.5-10.4-2.6-15.7-3.3c-3.9-0.5-7.9-0.8-11.8-0.8
				c-3.8,0-7.6,0.3-11.3,0.7l-5.9,0.8c-1.7,0.2-3,1.6-3.1,3.4l-0.2,5c-0.1,1.5,0.8,2.8,2.1,3.3c1.5,0.8,2.5,2.2,2.6,3.8l0.6,9.4
				c1,10.3,9.6,18.2,19.9,18.5l9.9,0.3c7.3,0.2,14-3.5,17.9-9.7l8.6-15.1c0.6-1,1.5-1.7,2.6-2.1c1.2-0.3,2.4-0.3,3.7,0
				c1.1,0.3,2.1,1.1,2.6,2.1l8.6,15.1c3.8,6.1,10.3,9.7,17.4,9.7h0c0.2,0,0.3,0,0.5,0l9.9-0.3c10.3-0.3,18.9-8.2,19.9-18.5l0.6-9.4
				c0.1-1.6,1.1-3.1,2.6-3.8c1.3-0.6,2.2-1.9,2.1-3.3L1058.6,316z M1048.5,336.3c0.3,8.1-6,14.9-14.1,15.2l-8,0.3
				c-0.4,0-0.8,0-1.2,0c-14.8,0-21-16.6-21.3-17.4c-0.8-3.4-0.2-7.1,1.7-10c1.9-3,5-5,8.5-5.6c8-1.4,16.1-2,24.2-1.9
				c5.3,0.1,9.6,4.3,9.8,9.6L1048.5,336.3z M981.2,334.5c0,0.2-4.8,17.3-21.7,17.3c-0.3,0-0.5,0-0.8,0l-8-0.3
				c-8.1-0.3-14.4-7.1-14.1-15.2l0.4-9.7c0.2-5.3,4.5-9.5,9.8-9.6c0.7,0,1.4,0,2.1,0c7.4,0,14.8,0.6,22.1,1.9
				c3.5,0.6,6.6,2.6,8.5,5.6C981.4,327.4,982,331.1,981.2,334.5z"/>
			<g>
				<path class="st14" d="M971,318.8c-7.3-1.2-14.7-1.9-22.1-1.9c-0.7,0-1.4,0-2.1,0c-5.3,0.1-9.6,4.3-9.8,9.6l-0.4,9.7
					c-0.3,8.1,6,14.9,14.1,15.2l8,0.3c0.3,0,0.5,0,0.8,0c16.9,0,21.6-17.2,21.7-17.3c0.9-3.4,0.2-7.1-1.7-10
					C977.6,321.5,974.5,319.4,971,318.8z"/>
				<path class="st14" d="M1038.3,317c-8.1-0.1-16.2,0.5-24.2,1.9c-3.5,0.6-6.6,2.6-8.5,5.6c-1.9,2.9-2.5,6.6-1.7,10
					c0.3,0.8,6.5,17.4,21.3,17.4c0.4,0,0.8,0,1.2,0l8-0.3c8.1-0.3,14.4-7.1,14.1-15.2l-0.4-9.7
					C1047.9,321.3,1043.6,317.1,1038.3,317z"/>
				<path class="st14" d="M1058.6,316c-0.1-1.7-1.3-3.1-3.1-3.4l-5.9-0.8c-7.6-1-15.5-1-23.1,0.1c-5.3,0.7-10.6,1.9-15.8,3.3
					l-11,3.2l-3.2,0.4c-1.5,0.2-3,0.3-4.6,0.3v10.2c0.8-0.1,1.6,0,2.3,0.2c1.1,0.3,2.1,1.1,2.6,2.1l8.6,15.1
					c3.8,6.1,10.3,9.7,17.4,9.7h0c0.2,0,0.3,0,0.5,0l9.9-0.3c10.3-0.3,18.9-8.2,19.9-18.5l0.6-9.4c0.1-1.6,1.1-3.1,2.6-3.8
					c1.3-0.6,2.2-1.9,2.1-3.3L1058.6,316z M1034.5,351.5l-8,0.3c-0.4,0-0.8,0-1.2,0c-14.8,0-21-16.6-21.3-17.4
					c-0.8-3.4-0.2-7.1,1.7-10c1.9-3,5-5,8.5-5.6c8-1.4,16.1-2,24.2-1.9c5.3,0.1,9.6,4.3,9.8,9.6l0.4,9.7
					C1048.9,344.3,1042.5,351.2,1034.5,351.5z"/>
			</g>
		</g>
		<g>
			<path class="st7" d="M674.5,304.8l5.6-37.8l0.1,0c0.2-7.7,4.4-14.3,10.6-18l0.8-4.1c0.2-0.8,0.9-1.5,1.8-1.5h18.4
				c0.9,0,1.7,0.7,1.8,1.5l0.8,5.2h56.9l0.8-5.2c0.1-0.9,0.9-1.5,1.8-1.5h18.4c0.9,0,1.6,0.6,1.8,1.5l0.8,4.1
				c6.2,3.7,10.4,10.3,10.6,18l0.1,0l5.6,37.8c1.3,7.5-3.4,15.4-10.8,17.4l-0.1,0c-7,1.9-14.2-1.6-17.2-8l-8.5-14.6
				c-2.6,3-6.3,4.9-10.5,4.9c-6.5,0-11.9-3.9-13.5-10.4h-15.5c-1.5,6.5-7,10.4-13.5,10.4c-4.2,0-8-1.9-10.5-4.9l-8.5,14.6
				c-3,6.4-10.2,9.8-17.2,8l-0.1,0C677.9,320.3,673.2,312.4,674.5,304.8z"/>
			<path class="st15" d="M742.8,250.3h-28.4l-0.8-5.2c-0.1-0.9-0.9-1.5-1.8-1.5h-18.4c-0.9,0-1.6,0.6-1.8,1.5l-0.8,4.1
				c-6.2,3.7-10.4,10.3-10.6,18l-0.1,0l-5.6,37.8c-1.3,7.5,3.4,15.4,10.8,17.4l0.1,0c7,1.9,14.2-1.6,17.2-8l8.5-14.6
				c2.6,3,6.3,4.9,10.5,4.9c6.5,0,11.9-3.9,13.5-10.4h7.7V250.3z"/>
			<g>
				<g>
					<polygon class="st16" points="712,238.9 712,238.9 712,238.9 					"/>
				</g>
				<path class="st7" d="M715.6,267.6c0,7.1-5.7,12.8-12.8,12.8c-7.1,0-12.8-5.7-12.8-12.8c0-7.1,5.7-12.8,12.8-12.8
					C709.9,254.9,715.6,260.6,715.6,267.6z"/>
				<path class="st5" d="M774,290.7c0,5.4-4.4,9.8-9.8,9.8c-5.4,0-9.8-4.4-9.8-9.8c0-5.4,4.4-9.8,9.8-9.8
					C769.6,280.9,774,285.3,774,290.7z"/>
				<path class="st5" d="M731.6,290.7c0,5.4-4.4,9.8-9.8,9.8c-5.4,0-9.8-4.4-9.8-9.8c0-5.4,4.4-9.8,9.8-9.8
					C727.2,280.9,731.6,285.3,731.6,290.7z"/>
				<path class="st5" d="M748.2,278.3c0,3-2.4,5.4-5.4,5.4c-3,0-5.4-2.4-5.4-5.4c0-3,2.4-5.4,5.4-5.4
					C745.8,272.9,748.2,275.4,748.2,278.3z"/>
				<path class="st5" d="M762,267.7c0,0.9-0.7,1.6-1.6,1.6h-7c-0.9,0-1.6-0.7-1.6-1.6v-1.7c0-0.7,0.5-1.2,1.2-1.2h7.8
					c0.7,0,1.2,0.5,1.2,1.2V267.7z"/>
				<path class="st5" d="M723.6,267.7c0,0.9,0.7,1.6,1.6,1.6h7c0.9,0,1.6-0.7,1.6-1.6v-1.7c0-0.7-0.5-1.2-1.2-1.2h-7.8
					c-0.7,0-1.2,0.5-1.2,1.2V267.7z"/>
				<path class="st17" d="M788.6,260.7c0,2.3-1.8,4.1-4.1,4.1c-2.3,0-4.1-1.8-4.1-4.1c0-2.3,1.8-4.1,4.1-4.1
					C786.7,256.6,788.6,258.4,788.6,260.7z"/>
				<path class="st18" d="M788.6,278.3c0,2.3-1.8,4.1-4.1,4.1c-2.3,0-4.1-1.8-4.1-4.1c0-2.3,1.8-4.1,4.1-4.1
					C786.7,274.3,788.6,276.1,788.6,278.3z"/>
				<path class="st19" d="M793.3,273.6c-2.3,0-4.1-1.8-4.1-4.1c0-2.3,1.8-4.1,4.1-4.1c2.3,0,4.1,1.8,4.1,4.1
					C797.4,271.8,795.6,273.6,793.3,273.6z"/>
				<path class="st20" d="M775.6,273.6c-2.3,0-4.1-1.8-4.1-4.1c0-2.3,1.8-4.1,4.1-4.1s4.1,1.8,4.1,4.1
					C779.7,271.8,777.9,273.6,775.6,273.6z"/>
				<path class="st5" d="M713.1,266.7c0-0.7-0.5-1.2-1.2-1.2h-4.8c-1.1,0-2-0.9-2-2v-4.8c0-0.7-0.5-1.2-1.2-1.2h-2.1
					c-0.7,0-1.2,0.5-1.2,1.2v4.8c0,1.1-0.9,2-2,2h-4.8c-0.7,0-1.2,0.5-1.2,1.2v2.1c0,0.7,0.5,1.2,1.2,1.2h4.8c1.1,0,2,0.9,2,2v4.8
					c0,0.7,0.5,1.2,1.2,1.2h2.1c0.7,0,1.2-0.5,1.2-1.2v-4.8c0-1.1,0.9-2,2-2h4.8c0.7,0,1.2-0.5,1.2-1.2V266.7z"/>
			</g>
		</g>
		<g>
			<path class="st21" d="M1145.2,286.8v7.9c0,6.6-5.3,11.9-11.9,11.9h-32.3c-6.6,0-11.9-5.3-11.9-11.9v-8c-0.3,0-0.5-0.1-0.8-0.1
				c-0.4-0.1-0.9-0.1-1.4-0.1v8.3c0,7.8,6.3,14.1,14.1,14.1h32.3c7.8,0,14.1-6.3,14.1-14.1v-7.8
				C1146.6,286.8,1145.9,286.8,1145.2,286.8z"/>
			<path class="st21" d="M1119.7,292.5v5.4c0,6.6-5.3,11.9-11.9,11.9h-6.9c-6.6,0-11.9-5.3-11.9-11.9v-5.1h-2.2v5.1
				c0,7.8,6.3,14.1,14.1,14.1h6.9c7.8,0,14.1-6.3,14.1-14.1v-5.4H1119.7z"/>
			<path class="st21" d="M1050.1,219.1V208c0-6.6,5.3-11.9,11.9-11.9h13c6.6,0,11.9,5.3,11.9,11.9v11.1h2.2V208
				c0-7.8-6.3-14.1-14.1-14.1h-13c-7.8,0-14.1,6.3-14.1,14.1v11.1H1050.1z"/>
			<rect x="1086.8" y="217.8" class="st21" width="2.2" height="73.2"/>
			<rect x="1119.7" y="176" class="st21" width="2.2" height="118.2"/>
			<rect x="1145.2" y="197.9" class="st21" width="2.2" height="95.5"/>
			<g>
				<rect x="1119.4" y="159.9" class="st21" width="3" height="18.6"/>
				<rect x="1119.4" y="159.9" class="st22" width="1.5" height="18.6"/>
				<rect x="1118.4" y="146" class="st21" width="5" height="27"/>
				<rect x="1118.4" y="146" class="st22" width="2.5" height="27"/>
				<path class="st21" d="M1133.4,144.2c-1.5,4.1-5.9,6-9.5,6c-5.2,0-9.4-4.2-9.4-9.4c0-5.2,4.2-9.4,9.4-9.4c3.5,0,7.8,1.7,9.4,5.7
					C1133.7,138.2,1133.5,144.1,1133.4,144.2z"/>
				<path class="st22" d="M1133.4,144.2c-1.5,4.1-5.9,6-9.5,6c-5.2,0-9.4-4.2-9.4-9.4c0-5.2,1.9,3.9,9.5,3.9c5,0,7.6-11.6,9.3-7.6
					C1133.7,138.2,1133.5,144.1,1133.4,144.2z"/>
				<path class="st23" d="M1133.8,141c0,2.3-0.5,4.2-1,4.2s-1-1.9-1-4.2c0-2.3,0.5-4.2,1-4.2S1133.8,138.6,1133.8,141z"/>
				<path class="st24" d="M1133.8,140.8c0,2.2-0.4,4-1,4c-0.5,0-1-1.8-1-4c0-2.2,0.4-4,1-4C1133.3,136.7,1133.8,138.5,1133.8,140.8z
					"/>
				<path class="st25" d="M1132.6,140.8c0,1.8-0.2,3.2-0.4,3.2c-0.2,0-0.4-1.4-0.4-3.2c0-1.8,0.2-3.2,0.4-3.2
					C1132.5,137.6,1132.6,139,1132.6,140.8z"/>
				<path class="st23" d="M1122.6,140.6c0,0.6-0.5,1.2-1.2,1.2h-2.8c-0.7,0-1.2-0.5-1.2-1.2l0,0c0-0.6,0.5-1.2,1.2-1.2h2.8
					C1122.1,139.4,1122.6,139.9,1122.6,140.6L1122.6,140.6z"/>
				<path class="st26" d="M1122.4,140.5c0,0.6-0.5,1-1.1,1h-2.6c-0.6,0-1.1-0.5-1.1-1l0,0c0-0.6,0.5-1,1.1-1h2.6
					C1121.9,139.5,1122.4,140,1122.4,140.5L1122.4,140.5z"/>
				<path class="st25" d="M1122.4,140.5c0,0.6-0.5,1-1,1h-2.5c-0.6,0-1-0.5-1-1l0,0c0-0.6,0.5-1,1-1h2.5
					C1122,139.5,1122.4,140,1122.4,140.5L1122.4,140.5z"/>
			</g>
			<g>
				<rect x="1144.8" y="180.5" class="st21" width="3" height="18.6"/>
				<rect x="1144.8" y="180.5" class="st22" width="1.5" height="18.6"/>
				<rect x="1143.8" y="166.6" class="st21" width="5" height="27"/>
				<rect x="1143.8" y="166.6" class="st22" width="2.5" height="27"/>
				<path class="st22" d="M1149.4,168.7c-0.1-0.5,4.6-17.4,4-17.4c-3,0-5.6,2.2-7.6,6.2c-1.5,3-2.1,6.4-2.1,9.5c0,0.7,0,3.3,0,5.1
					c0,1.1,5-1.2,5-1.9C1148.8,169.1,1149.3,168.7,1149.4,168.7z"/>
				<path class="st21" d="M1160.7,160.8c0,5.3-3.2,9.5-7.2,9.5c-4,0-7.2-4.3-7.2-9.5c0-5.3,3.2-9.5,7.2-9.5
					C1157.5,151.3,1160.7,155.6,1160.7,160.8z"/>
				<path class="st22" d="M1150.7,160.7c0,5.3,6.8,9.6,2.8,9.6c-4,0-7.2-4.3-7.2-9.5c0-5.3,3.2-9.5,7.2-9.5
					C1157.5,151.3,1150.7,155.5,1150.7,160.7z"/>
				<path class="st21" d="M1140.9,164"/>
				<path class="st26" d="M1153.1,164.7h-0.8c-1.7,0-1.8-3.3-1.8-4c0-0.6,0-4,1.8-4h0.8c1.7,0,1.8,3.3,1.8,4
					C1154.9,161.4,1154.9,164.7,1153.1,164.7z"/>
				<path class="st25" d="M1153.1,164.4h-0.8c-1.5,0-1.7-3.1-1.7-3.7c0-0.6,0-3.7,1.7-3.7h0.8c1.6,0,1.7,3.1,1.7,3.7
					C1154.7,161.3,1154.7,164.4,1153.1,164.4z"/>
				<path class="st25" d="M1160.6,161.5c0,0.3-0.2,0.5-0.5,0.5l0,0c-0.3,0-0.5-0.2-0.5-0.5v-1.2c0-0.3,0.2-0.5,0.5-0.5l0,0
					c0.3,0,0.5,0.2,0.5,0.5V161.5z"/>
			</g>
			<g>
				<rect x="1119.3" y="228.5" class="st21" width="3" height="7.3"/>
				<rect x="1119.3" y="273.1" class="st21" width="3" height="7.3"/>
				<path class="st21" d="M1124.3,276c0,0.9-0.7,1.6-1.6,1.6h-3.9c-0.9,0-1.6-0.7-1.6-1.6v-40.2c0-0.9,0.7-1.6,1.6-1.6h3.9
					c0.9,0,1.6,0.7,1.6,1.6V276z"/>
				<path class="st27" d="M1123.7,264.2c0,0.4-0.6,0.6-1.3,0.6h-3.2c-0.7,0-1.3-0.3-1.3-0.6v-16.5c0-0.4,0.6-0.6,1.3-0.6h3.2
					c0.7,0,1.3,0.3,1.3,0.6V264.2z"/>
			</g>
			<g>
				<rect x="1047.4" y="235.1" class="st28" width="3" height="12.6"/>
				<rect x="1046.3" y="218.1" class="st21" width="5.3" height="18.4"/>
				<rect x="1047.5" y="214.9" class="st21" width="3" height="6.4"/>
			</g>
		</g>
		<g>
			<rect x="1018.2" y="255.6" class="st29" width="49.6" height="32.8"/>
			
				<ellipse transform="matrix(0.1609 -0.987 0.987 0.1609 611.7545 1263.5365)" class="st8" cx="1049" cy="272" rx="13.9" ry="13.9"/>
			<path class="st30" d="M1057,272c0,4.4-3.6,8-8,8s-8-3.6-8-8c0-4.4,3.6-8,8-8S1057,267.6,1057,272z"/>
			<g>
				<rect x="1048.8" y="260.3" class="st9" width="0.4" height="2.2"/>
				<rect x="1049.7" y="271.5" class="st9" width="0.4" height="2.2"/>
				<rect x="1047.8" y="283.3" class="st9" width="2.2" height="0.4"/>
				<rect x="1050.9" y="271.5" class="st9" width="0.4" height="2.2"/>
				<rect x="1061.3" y="271.6" class="st9" width="0.4" height="2"/>
				<rect x="1036.3" y="271.6" class="st9" width="0.4" height="2"/>
				<rect x="1047.9" y="261.2" class="st9" width="2.2" height="0.4"/>
				<polygon class="st9" points="1046.3,273.8 1046.3,271.5 1048.5,272.6 				"/>
				<polygon class="st9" points="1058.4,273.4 1058.4,271.9 1059.9,272.6 				"/>
				<polygon class="st9" points="1059.7,273.4 1059.7,271.9 1061.3,272.6 				"/>
				<polygon class="st9" points="1039.6,271.9 1039.6,273.4 1038,272.6 				"/>
				<polygon class="st9" points="1038.2,271.9 1038.2,273.4 1036.7,272.6 				"/>
			</g>
			<rect x="1065.9" y="255.6" class="st30" width="2" height="32.8"/>
			<rect x="1018.2" y="255.6" class="st30" width="2" height="32.8"/>
		</g>
		<g>
			<g>
				<g>
					<polygon class="st31" points="915.6,97.5 925.8,95.7 925.8,93.2 915.6,91.4 785.5,91.4 785.5,97.5 					"/>
				</g>
				<g>
					<polygon class="st32" points="915.6,97.5 925.8,95.7 925.8,93.2 915.6,91.4 915.6,91.4 915.6,97.5 					"/>
				</g>
				<g>
					<polygon class="st11" points="925.8,95.7 933.3,94.4 925.8,93.1 					"/>
				</g>
				<g>
					<rect x="785.5" y="91.4" class="st11" width="30.8" height="6.1"/>
				</g>
				<g>
					<rect x="813.6" y="91.4" class="st33" width="2.7" height="6.1"/>
				</g>
				<g>
					<path class="st11" d="M784,94.4c0-1.7,0.6-3,1.4-3c0.8,0,1.4,1.4,1.4,3c0,1.7-0.6,3-1.4,3C784.7,97.5,784,96.1,784,94.4z"/>
				</g>
			</g>
			<g>
				<path class="st14" d="M925.8,95.7L925.8,95.7l7.2-1.2H784c0,1.7,0.6,3,1.4,3c0,0,0,0,0,0v0h30.8h99.3h0L925.8,95.7z"/>
				<path class="st2" d="M933.3,94.4l-7.5-1.3v0l-10.2-1.7h0h-99.3h-30.6c-0.1,0-0.1,0-0.2,0c-0.8,0-1.4,1.4-1.4,3c0,0,0,0,0,0h149
					L933.3,94.4z"/>
			</g>
		</g>
		<g>
			<rect x="712.2" y="206.6" class="st3" width="10.9" height="9.6"/>
			<g>
				<path class="st4" d="M717.5,210.2c-0.2,0-0.3-0.1-0.3-0.3v-1.5c0-0.2,0.1-0.3,0.3-0.3h1.3c0.2,0,0.3,0.1,0.3,0.3v1.5
					c0,0.2-0.1,0.3-0.3,0.3H717.5z"/>
				<path class="st4" d="M717.5,214.9c-0.2,0-0.3-0.1-0.3-0.3v-1.5c0-0.2,0.1-0.3,0.3-0.3h1.3c0.2,0,0.3,0.1,0.3,0.3v1.5
					c0,0.2-0.1,0.3-0.3,0.3H717.5z"/>
				<path class="st4" d="M715.2,212.3c-0.2,0-0.3-0.1-0.3-0.3v-1.1c0-0.2,0.1-0.3,0.3-0.3h0.1c0.2,0,0.3,0.1,0.3,0.3v1.1
					c0,0.2-0.1,0.3-0.3,0.3H715.2z"/>
			</g>
			<path class="st10" d="M675.8,218.2c-1.1,0-2.1-0.9-2.1-2.1v-9.8c0-1.1,0.9-2.1,2.1-2.1h35.1c1.1,0,2.1,0.9,2.1,2.1v9.8
				c0,1.1-0.9,2.1-2.1,2.1H675.8z"/>
		</g>
	</g>
</g>
<g>
	<path class="st0" d="M63.6,191.2v22.1h-2.5v-21.8L63.6,191.2z M74,197.8l-7,7l7.8,8.5h-3.3l-7.7-8.5l6.9-7.1H74z"/>
	<path class="st0" d="M89.6,199.6c1.2,1.4,1.7,3.4,1.7,5.9c0,2.4-0.6,4.4-1.8,5.9c-1.2,1.5-2.8,2.2-4.9,2.2c-2.1,0-3.8-0.7-5-2.2
		c-1.2-1.4-1.7-3.4-1.7-5.9c0-2.5,0.6-4.4,1.8-5.9c1.2-1.5,2.8-2.2,5-2.2S88.4,198.2,89.6,199.6z M81.6,201c-0.7,1-1,2.5-1,4.6
		s0.3,3.6,1,4.6c0.7,1,1.7,1.5,3,1.5c1.4,0,2.4-0.5,3-1.5c0.7-1,1-2.5,1-4.6c0-2-0.3-3.6-1-4.6c-0.7-1-1.7-1.5-3-1.5
		C83.3,199.5,82.2,200,81.6,201z M87.1,189.8l1.1,2.1l-6.2,2.5l-0.8-1.3L87.1,189.8z"/>
	<path class="st0" d="M108.2,191.5v21.8H106l-0.2-2c-0.6,0.8-1.2,1.4-2,1.8c-0.7,0.4-1.6,0.6-2.4,0.6c-2,0-3.5-0.7-4.4-2.2
		c-1-1.4-1.5-3.4-1.5-5.9c0-1.6,0.2-3,0.7-4.2c0.5-1.2,1.2-2.2,2.1-2.9s2-1,3.2-1c1.7,0,3.1,0.6,4.2,1.9v-8.1L108.2,191.5z
		 M99.2,201c-0.7,1-1,2.6-1,4.6c0,2,0.3,3.5,1,4.6c0.6,1,1.6,1.6,2.8,1.6c1.5,0,2.8-0.8,3.8-2.5v-7.7c-0.4-0.7-1-1.1-1.6-1.5
		c-0.6-0.3-1.3-0.5-2-0.5C100.9,199.4,99.9,200,99.2,201z"/>
	<path class="st0" d="M125,199.6c1.2,1.4,1.7,3.4,1.7,5.9c0,2.4-0.6,4.4-1.8,5.9c-1.2,1.5-2.8,2.2-4.9,2.2c-2.1,0-3.8-0.7-5-2.2
		c-1.2-1.4-1.7-3.4-1.7-5.9c0-2.5,0.6-4.4,1.8-5.9c1.2-1.5,2.8-2.2,5-2.2S123.9,198.2,125,199.6z M117,201c-0.7,1-1,2.5-1,4.6
		s0.3,3.6,1,4.6c0.7,1,1.7,1.5,3,1.5c1.4,0,2.4-0.5,3-1.5c0.7-1,1-2.5,1-4.6c0-2-0.3-3.6-1-4.6c-0.7-1-1.7-1.5-3-1.5
		C118.7,199.5,117.7,200,117,201z"/>
	<path class="st0" d="M138,209.5c0,1.4,0.9,2.1,2.6,2.1c0.8,0,1.7-0.2,2.6-0.5l0.6,1.8c-1,0.5-2.2,0.8-3.7,0.8
		c-1.4,0-2.5-0.4-3.4-1.2c-0.8-0.8-1.3-1.8-1.3-3.1v-15.9h-4.8v-2h7.3V209.5z"/>
	<path class="st0" d="M159.8,210.8c0,2.5-0.8,4.4-2.5,5.8c-1.7,1.4-4.1,2.4-7.4,2.9l-0.4-1.9c2.5-0.4,4.4-1.1,5.8-2.2
		c1.4-1,2-2.5,2-4.5v-11.3h-6.5v-2h9V210.8z M158.8,191c0.3,0.3,0.5,0.7,0.5,1.3c0,0.5-0.2,0.9-0.5,1.3c-0.3,0.3-0.8,0.5-1.3,0.5
		s-1-0.2-1.3-0.5c-0.3-0.3-0.5-0.7-0.5-1.3c0-0.5,0.2-0.9,0.5-1.3c0.3-0.3,0.8-0.5,1.3-0.5S158.4,190.6,158.8,191z"/>
	<path class="st0" d="M188.4,205.8c-0.7-0.7-1-1.5-1-2.6c0-1,0.3-1.9,1-2.6c0.7-0.7,1.5-1,2.6-1c1,0,1.9,0.3,2.6,1
		c0.7,0.7,1,1.5,1,2.6c0,1-0.3,1.9-1,2.6c-0.7,0.7-1.5,1-2.6,1C189.9,206.8,189.1,206.5,188.4,205.8z"/>
	<path class="st0" d="M233.9,198.5c-0.6,0.2-1.2,0.3-1.9,0.4c-0.7,0-1.6,0.1-2.6,0.1c1.8,0.8,2.7,2.1,2.7,3.9c0,1.6-0.5,2.9-1.6,3.8
		c-1,1-2.5,1.5-4.3,1.5c-0.9,0-1.7-0.1-2.3-0.3c-0.2,0.2-0.4,0.4-0.6,0.7c-0.1,0.3-0.2,0.6-0.2,0.8c0,0.9,0.7,1.3,2.1,1.3h2.8
		c1,0,2,0.2,2.8,0.5c0.8,0.4,1.5,0.9,2,1.5c0.5,0.6,0.7,1.4,0.7,2.2c0,1.5-0.6,2.7-1.9,3.5c-1.3,0.8-3.1,1.2-5.5,1.2
		c-2.4,0-4.1-0.4-5.1-1.1c-1-0.7-1.5-1.9-1.5-3.6h2.2c0,0.6,0.1,1.2,0.4,1.6c0.2,0.4,0.7,0.7,1.3,0.9c0.6,0.2,1.5,0.3,2.6,0.3
		c1.7,0,2.9-0.2,3.7-0.7s1.2-1.1,1.2-1.9c0-0.7-0.3-1.3-1-1.6c-0.7-0.4-1.5-0.6-2.5-0.6h-2.8c-1.3,0-2.3-0.3-2.9-0.8
		c-0.7-0.6-1-1.3-1-2.1c0-0.5,0.1-1,0.4-1.5c0.3-0.5,0.7-0.9,1.3-1.3c-0.9-0.5-1.5-1-2-1.7c-0.4-0.7-0.6-1.6-0.6-2.6
		c0-1,0.3-2,0.8-2.8c0.5-0.8,1.3-1.5,2.2-1.9c0.9-0.5,2-0.7,3.2-0.7c1.8,0,3.1-0.1,4-0.3c0.9-0.2,1.9-0.5,3-1L233.9,198.5z
		 M223.3,200.2c-0.6,0.6-0.9,1.5-0.9,2.6c0,1.1,0.3,2,0.9,2.6c0.6,0.7,1.5,1,2.8,1c1.1,0,1.9-0.3,2.5-1c0.6-0.6,0.9-1.5,0.9-2.7
		c0-2.4-1.2-3.5-3.5-3.5C224.9,199.3,224,199.6,223.3,200.2z"/>
	<path class="st0" d="M249.1,199.6c1.2,1.4,1.7,3.4,1.7,5.9c0,2.4-0.6,4.4-1.8,5.9c-1.2,1.5-2.8,2.2-4.9,2.2c-2.1,0-3.8-0.7-5-2.2
		c-1.2-1.4-1.7-3.4-1.7-5.9c0-2.5,0.6-4.4,1.8-5.9c1.2-1.5,2.8-2.2,5-2.2S248,198.2,249.1,199.6z M241.1,201c-0.7,1-1,2.5-1,4.6
		s0.3,3.6,1,4.6c0.7,1,1.7,1.5,3,1.5c1.4,0,2.4-0.5,3-1.5c0.7-1,1-2.5,1-4.6c0-2-0.3-3.6-1-4.6c-0.7-1-1.7-1.5-3-1.5
		C242.8,199.5,241.8,200,241.1,201z"/>
	<path class="st0" d="M256,197.8h2.1l0.2,2.2c0.6-0.8,1.4-1.4,2.3-1.8c0.9-0.4,1.9-0.7,2.8-0.7c2.9,0,4.4,1.5,4.4,4.6v11.3h-2.5
		v-9.5c0-1.2-0.1-2-0.2-2.7c-0.1-0.6-0.4-1.1-0.8-1.4c-0.4-0.3-0.9-0.4-1.7-0.4c-0.8,0-1.6,0.3-2.4,0.8c-0.7,0.5-1.4,1.1-1.8,1.8
		v11.3H256V197.8z"/>
	<path class="st0" d="M285.5,191.5v21.8h-2.2l-0.2-2c-0.6,0.8-1.2,1.4-2,1.8c-0.7,0.4-1.6,0.6-2.4,0.6c-2,0-3.5-0.7-4.4-2.2
		c-1-1.4-1.5-3.4-1.5-5.9c0-1.6,0.2-3,0.7-4.2c0.5-1.2,1.2-2.2,2.1-2.9s2-1,3.2-1c1.7,0,3.1,0.6,4.2,1.9v-8.1L285.5,191.5z
		 M276.5,201c-0.7,1-1,2.6-1,4.6c0,2,0.3,3.5,1,4.6c0.6,1,1.6,1.6,2.8,1.6c1.5,0,2.8-0.8,3.8-2.5v-7.7c-0.4-0.7-1-1.1-1.6-1.5
		c-0.6-0.3-1.3-0.5-2-0.5C278.2,199.4,277.2,200,276.5,201z"/>
	<path class="st0" d="M302.3,199.6c1.2,1.4,1.7,3.4,1.7,5.9c0,2.4-0.6,4.4-1.8,5.9c-1.2,1.5-2.8,2.2-4.9,2.2c-2.1,0-3.8-0.7-5-2.2
		c-1.2-1.4-1.7-3.4-1.7-5.9c0-2.5,0.6-4.4,1.8-5.9c1.2-1.5,2.8-2.2,5-2.2S301.2,198.2,302.3,199.6z M294.3,201c-0.7,1-1,2.5-1,4.6
		s0.3,3.6,1,4.6c0.7,1,1.7,1.5,3,1.5c1.4,0,2.4-0.5,3-1.5c0.7-1,1-2.5,1-4.6c0-2-0.3-3.6-1-4.6c-0.7-1-1.7-1.5-3-1.5
		C296,199.5,295,200,294.3,201z"/>
	<path class="st0" d="M315.2,209.5c0,1.4,0.9,2.1,2.6,2.1c0.8,0,1.7-0.2,2.6-0.5l0.6,1.8c-1,0.5-2.2,0.8-3.7,0.8
		c-1.4,0-2.5-0.4-3.4-1.2c-0.8-0.8-1.3-1.8-1.3-3.1v-15.9H308v-2h7.3V209.5z"/>
	<path class="st0" d="M329.5,191.2v22.1H327v-21.8L329.5,191.2z M339.9,197.8l-7,7l7.8,8.5h-3.3l-7.7-8.5l6.9-7.1H339.9z"/>
	<path class="st0" d="M355.5,199.6c1.2,1.4,1.7,3.4,1.7,5.9c0,2.4-0.6,4.4-1.8,5.9c-1.2,1.5-2.8,2.2-4.9,2.2c-2.1,0-3.8-0.7-5-2.2
		c-1.2-1.4-1.7-3.4-1.7-5.9c0-2.5,0.6-4.4,1.8-5.9c1.2-1.5,2.8-2.2,5-2.2S354.3,198.2,355.5,199.6z M347.5,201c-0.7,1-1,2.5-1,4.6
		s0.3,3.6,1,4.6c0.7,1,1.7,1.5,3,1.5c1.4,0,2.4-0.5,3-1.5c0.7-1,1-2.5,1-4.6c0-2-0.3-3.6-1-4.6c-0.7-1-1.7-1.5-3-1.5
		C349.2,199.5,348.2,200,347.5,201z"/>
	<path class="st0" d="M365.4,211.2h8.7l-0.3,2.1h-11.4v-1.9l8.6-11.5h-7.9v-2.2H374v2L365.4,211.2z"/>
	<path class="st0" d="M383.2,211.2h8.7l-0.3,2.1h-11.4v-1.9l8.6-11.5h-7.9v-2.2h10.9v2L383.2,211.2z"/>
	<path class="st0" d="M418.8,205.8c-0.7-0.7-1-1.5-1-2.6c0-1,0.3-1.9,1-2.6c0.7-0.7,1.5-1,2.6-1c1,0,1.9,0.3,2.6,1
		c0.7,0.7,1,1.5,1,2.6c0,1-0.3,1.9-1,2.6c-0.7,0.7-1.5,1-2.6,1C420.4,206.8,419.5,206.5,418.8,205.8z"/>
	<path class="st0" d="M463.4,198.4c0.6,0.6,0.8,1.7,0.8,3.4v11.6H462v-11.2c0-1.1-0.1-1.8-0.2-2.2c-0.1-0.4-0.5-0.6-1-0.6
		c-1,0-1.9,0.6-2.7,1.9v12.1h-2.3v-11.2c0-1.1-0.1-1.8-0.2-2.2c-0.1-0.4-0.5-0.6-1-0.6c-1,0-1.9,0.6-2.7,1.9v12.1h-2.3v-15.6h1.9
		l0.2,1.8c0.5-0.7,1-1.2,1.5-1.6c0.5-0.4,1.1-0.6,1.9-0.6c1.5,0,2.4,0.7,2.8,2.1c0.5-0.7,1-1.2,1.5-1.5c0.5-0.4,1.2-0.5,1.9-0.5
		C462.1,197.4,462.8,197.7,463.4,198.4z"/>
	<path class="st0" d="M472,210.3c0.8,0.9,1.9,1.3,3.2,1.3c0.8,0,1.5-0.1,2.1-0.3s1.3-0.6,2.1-1l1.2,1.7c-0.7,0.6-1.6,1-2.5,1.3
		c-0.9,0.3-1.9,0.5-2.8,0.5c-2.2,0-4-0.7-5.2-2.2c-1.3-1.5-1.9-3.4-1.9-5.9c0-1.6,0.3-3,0.8-4.2c0.6-1.2,1.3-2.2,2.4-2.9
		c1-0.7,2.2-1,3.6-1c2,0,3.5,0.7,4.7,2.1c1.1,1.4,1.7,3.2,1.7,5.6c0,0.5,0,0.9-0.1,1.3h-10.5C470.7,208.1,471.2,209.4,472,210.3z
		 M471.9,200.8c-0.7,0.9-1.2,2.1-1.3,3.8h8.1c0-1.6-0.4-2.9-1.1-3.8c-0.7-0.9-1.6-1.3-2.8-1.3C473.7,199.5,472.7,199.9,471.9,200.8z
		"/>
	<path class="st0" d="M499.8,198.5c-0.6,0.2-1.2,0.3-1.9,0.4c-0.7,0-1.6,0.1-2.6,0.1c1.8,0.8,2.7,2.1,2.7,3.9c0,1.6-0.5,2.9-1.6,3.8
		c-1,1-2.5,1.5-4.3,1.5c-0.9,0-1.7-0.1-2.3-0.3c-0.2,0.2-0.4,0.4-0.6,0.7c-0.1,0.3-0.2,0.6-0.2,0.8c0,0.9,0.7,1.3,2.1,1.3h2.8
		c1,0,2,0.2,2.8,0.5c0.8,0.4,1.5,0.9,2,1.5c0.5,0.6,0.7,1.4,0.7,2.2c0,1.5-0.6,2.7-1.9,3.5c-1.3,0.8-3.1,1.2-5.5,1.2
		c-2.4,0-4.1-0.4-5.1-1.1c-1-0.7-1.5-1.9-1.5-3.6h2.2c0,0.6,0.1,1.2,0.4,1.6c0.2,0.4,0.7,0.7,1.3,0.9c0.6,0.2,1.5,0.3,2.6,0.3
		c1.7,0,2.9-0.2,3.7-0.7s1.2-1.1,1.2-1.9c0-0.7-0.3-1.3-1-1.6c-0.7-0.4-1.5-0.6-2.5-0.6h-2.8c-1.3,0-2.3-0.3-2.9-0.8
		c-0.7-0.6-1-1.3-1-2.1c0-0.5,0.1-1,0.4-1.5c0.3-0.5,0.7-0.9,1.3-1.3c-0.9-0.5-1.5-1-2-1.7c-0.4-0.7-0.6-1.6-0.6-2.6
		c0-1,0.3-2,0.8-2.8c0.5-0.8,1.3-1.5,2.2-1.9c0.9-0.5,2-0.7,3.2-0.7c1.8,0,3.1-0.1,4-0.3c0.9-0.2,1.9-0.5,3-1L499.8,198.5z
		 M489.3,200.2c-0.6,0.6-0.9,1.5-0.9,2.6c0,1.1,0.3,2,0.9,2.6c0.6,0.7,1.5,1,2.8,1c1.1,0,1.9-0.3,2.5-1c0.6-0.6,0.9-1.5,0.9-2.7
		c0-2.4-1.2-3.5-3.5-3.5C490.8,199.3,489.9,199.6,489.3,200.2z"/>
	<path class="st0" d="M515.6,211.3c0.2,0.3,0.5,0.5,1,0.6l-0.6,1.8c-1.5-0.2-2.5-0.9-2.8-2.2c-0.6,0.7-1.2,1.3-2.1,1.6
		c-0.8,0.4-1.8,0.6-2.8,0.6c-1.6,0-2.8-0.4-3.7-1.3c-0.9-0.9-1.3-2-1.3-3.5c0-1.6,0.6-2.8,1.9-3.7c1.3-0.9,3-1.3,5.4-1.3h2.3v-1.3
		c0-1.1-0.3-1.9-0.9-2.4c-0.6-0.5-1.5-0.7-2.7-0.7c-1.2,0-2.5,0.3-4,0.8l-0.7-1.9c1.8-0.6,3.5-1,5.1-1c1.9,0,3.3,0.4,4.3,1.3
		c1,0.9,1.5,2.1,1.5,3.7v7.5C515.3,210.5,515.4,211,515.6,211.3z M511.1,211.2c0.7-0.4,1.3-0.9,1.7-1.6v-4h-2.2
		c-1.7,0-2.8,0.3-3.6,0.8c-0.7,0.6-1.1,1.4-1.1,2.4c0,2,1,3,3,3C509.6,211.8,510.4,211.6,511.1,211.2z"/>
	<path class="st0" d="M534.3,198.4c0.6,0.6,0.8,1.7,0.8,3.4v11.6h-2.3v-11.2c0-1.1-0.1-1.8-0.2-2.2c-0.1-0.4-0.5-0.6-1-0.6
		c-1,0-1.9,0.6-2.7,1.9v12.1h-2.3v-11.2c0-1.1-0.1-1.8-0.2-2.2c-0.1-0.4-0.5-0.6-1-0.6c-1,0-1.9,0.6-2.7,1.9v12.1h-2.3v-15.6h1.9
		l0.2,1.8c0.5-0.7,1-1.2,1.5-1.6c0.5-0.4,1.1-0.6,1.9-0.6c1.5,0,2.4,0.7,2.8,2.1c0.5-0.7,1-1.2,1.5-1.5c0.5-0.4,1.2-0.5,1.9-0.5
		C533,197.4,533.7,197.7,534.3,198.4z"/>
	<path class="st0" d="M542.1,208.8c0,1,0.2,1.7,0.6,2.2c0.4,0.5,1.1,0.7,2,0.7c0.8,0,1.6-0.2,2.4-0.7c0.8-0.5,1.4-1.1,1.8-1.8v-11.5
		h2.5v15.6h-2.1l-0.2-2.1c-0.6,0.8-1.4,1.4-2.3,1.8c-0.9,0.4-1.8,0.6-2.7,0.6c-1.5,0-2.6-0.4-3.4-1.2c-0.8-0.8-1.1-1.9-1.1-3.4
		v-11.3h2.5V208.8z M548,189.8l1.1,2.1l-6.2,2.5l-0.8-1.3L548,189.8z"/>
	<path class="st0" d="M570.7,198.5c-0.6,0.2-1.2,0.3-1.9,0.4c-0.7,0-1.6,0.1-2.6,0.1c1.8,0.8,2.7,2.1,2.7,3.9c0,1.6-0.5,2.9-1.6,3.8
		c-1,1-2.5,1.5-4.3,1.5c-0.9,0-1.7-0.1-2.3-0.3c-0.2,0.2-0.4,0.4-0.6,0.7c-0.1,0.3-0.2,0.6-0.2,0.8c0,0.9,0.7,1.3,2.1,1.3h2.8
		c1,0,2,0.2,2.8,0.5c0.8,0.4,1.5,0.9,2,1.5c0.5,0.6,0.7,1.4,0.7,2.2c0,1.5-0.6,2.7-1.9,3.5c-1.3,0.8-3.1,1.2-5.5,1.2
		c-2.4,0-4.1-0.4-5.1-1.1c-1-0.7-1.5-1.9-1.5-3.6h2.2c0,0.6,0.1,1.2,0.4,1.6c0.2,0.4,0.7,0.7,1.3,0.9c0.6,0.2,1.5,0.3,2.6,0.3
		c1.7,0,2.9-0.2,3.7-0.7s1.2-1.1,1.2-1.9c0-0.7-0.3-1.3-1-1.6c-0.7-0.4-1.5-0.6-2.5-0.6h-2.8c-1.3,0-2.3-0.3-2.9-0.8
		c-0.7-0.6-1-1.3-1-2.1c0-0.5,0.1-1,0.4-1.5c0.3-0.5,0.7-0.9,1.3-1.3c-0.9-0.5-1.5-1-2-1.7c-0.4-0.7-0.6-1.6-0.6-2.6
		c0-1,0.3-2,0.8-2.8c0.5-0.8,1.3-1.5,2.2-1.9c0.9-0.5,2-0.7,3.2-0.7c1.8,0,3.1-0.1,4-0.3c0.9-0.2,1.9-0.5,3-1L570.7,198.5z
		 M560.2,200.2c-0.6,0.6-0.9,1.5-0.9,2.6c0,1.1,0.3,2,0.9,2.6c0.6,0.7,1.5,1,2.8,1c1.1,0,1.9-0.3,2.5-1c0.6-0.6,0.9-1.5,0.9-2.7
		c0-2.4-1.2-3.5-3.5-3.5C561.7,199.3,560.8,199.6,560.2,200.2z"/>
	<path class="st0" d="M582.6,213.4c-0.6,1.8-1.4,3.2-2.5,4.3c-1.1,1.1-2.6,1.7-4.5,1.9l-0.4-2c1-0.2,1.9-0.4,2.5-0.8
		c0.6-0.4,1.1-0.8,1.5-1.4s0.7-1.2,1-2.1h-0.8l-5.4-15.6h2.6l4.5,13.7l4.4-13.7h2.6L582.6,213.4z"/>
	<path class="st0" d="M600.7,197.8v13.6h4.4v2h-11.6v-2h4.8v-11.6h-4.6v-2H600.7z M600,191c0.3,0.3,0.5,0.7,0.5,1.3
		c0,0.5-0.2,0.9-0.5,1.3c-0.3,0.3-0.8,0.5-1.3,0.5c-0.5,0-1-0.2-1.3-0.5c-0.3-0.3-0.5-0.7-0.5-1.3c0-0.5,0.2-0.9,0.5-1.3
		c0.3-0.3,0.8-0.5,1.3-0.5C599.3,190.5,599.7,190.6,600,191z"/>
	<path class="st0" d="M618.6,210.9c0.7-0.5,1-1.1,1-1.8c0-0.5-0.1-0.9-0.3-1.3c-0.2-0.3-0.5-0.6-1.1-0.9c-0.5-0.3-1.3-0.5-2.4-0.8
		c-1.8-0.5-3.2-1-4-1.6c-0.9-0.6-1.3-1.6-1.3-2.9c0-1.3,0.5-2.3,1.6-3.1c1.1-0.8,2.5-1.2,4.3-1.2c2.2,0,4.1,0.6,5.7,1.7l-1.1,1.7
		c-0.7-0.5-1.3-0.8-2-1s-1.5-0.4-2.5-0.4c-2.2,0-3.4,0.7-3.4,2c0,0.5,0.1,0.9,0.4,1.2c0.2,0.3,0.7,0.6,1.2,0.8
		c0.6,0.2,1.4,0.5,2.5,0.8c1.7,0.5,3,1,3.8,1.7s1.3,1.7,1.3,3.1c0,1.6-0.6,2.7-1.9,3.5c-1.3,0.8-2.8,1.2-4.6,1.2
		c-2.4,0-4.5-0.7-6.1-2.1l1.4-1.6c0.6,0.5,1.3,0.9,2.2,1.2c0.8,0.3,1.7,0.5,2.5,0.5C617,211.6,618,211.4,618.6,210.9z"/>
</g>
</svg>
