<?xml version="1.0" encoding="utf-8"?>
<!-- Generator: Adobe Illustrator 23.0.2, SVG Export Plug-In . SVG Version: 6.00 Build 0)  -->
<svg xmlns="http://www.w3.org/2000/svg" xmlns:xlink="http://www.w3.org/1999/xlink" width="196.82" height="31.353" viewBox="0 0 196.82 31.353">
<g>
	<path fill="#444" d="M8.5,9.3c2.6,0,4.4,0.4,5.5,1.2c1.1,0.8,1.6,2,1.6,3.6c0,1.1-0.3,2-0.9,2.7s-1.4,1.1-2.5,1.3c0.6,0.1,1.1,0.2,1.6,0.4
		c0.5,0.2,0.9,0.5,1.3,0.9c0.4,0.4,0.7,0.8,0.9,1.4c0.2,0.5,0.3,1.2,0.3,1.9c0,0.9-0.2,1.7-0.6,2.4c-0.4,0.7-0.9,1.2-1.6,1.6
		s-1.5,0.7-2.5,0.9c-1,0.2-2,0.3-3.2,0.3H3V9.3H8.5z M5.7,11.3v5.8H9c1.4,0,2.5-0.3,3.1-0.8c0.6-0.5,0.9-1.3,0.9-2.2
		c0-1.1-0.3-1.8-1-2.2c-0.7-0.4-1.7-0.6-3.1-0.6H5.7z M5.7,19.1v6.5h3.3c0.6,0,1.2,0,1.8-0.1s1-0.2,1.5-0.4c0.4-0.2,0.7-0.5,1-0.9
		c0.2-0.4,0.4-0.9,0.4-1.6c0-1.1-0.3-2-1-2.6c-0.6-0.6-1.8-0.9-3.5-0.9H5.7z"/>
	<path fill="#2980B9" d="M32.3,27.7v-2.3h4.4V7.2L32.2,10l-1.2-1.9l5.5-3.4h2.8v20.8h3.6v2.3H32.3z"/>
	<path fill="#444" d="M69.9,11.6h-5.5v16.1h-2.7V11.6h-5.4V9.3h13.6V11.6z"/>
	<path fill="#444" d="M93.2,19.8h-6.9v8h-2.7V9.3h10.6v2.2h-7.9v6.1h6.9V19.8z"/>
	<path fill="#444" d="M118.5,19.4H111v6.1h8.5v2.2h-11.2V9.3h11.2v2.2H111v5.8h7.5V19.4z"/>
	<path fill="#444" d="M133.7,24.2c0.5,1.2,1.3,1.8,2.3,1.8c0.8,0,1.4-0.2,1.8-0.7c0.4-0.5,0.5-1.2,0.5-2.3V9.3h2.7v13.6c0,1.8-0.5,3.1-1.4,4
		s-2.2,1.3-3.7,1.3c-1.1,0-2-0.3-2.7-0.8c-0.8-0.5-1.4-1.3-1.8-2.1L133.7,24.2z"/>
	<path fill="#444" d="M166.9,19.4h-7.5v6.1h8.5v2.2h-11.2V9.3h11.2v2.2h-8.5v5.8h7.5V19.4z"/>
	<path fill="#444" d="M192.9,27.7l-7.6-8.5v8.5h-2.7V9.3h2.7v8l6.8-8h3.2l-7.6,8.8l8.6,9.6H192.9z"/>
</g>
</svg>
